<?xml version="1.0" encoding="UTF-8" standalone="no"?>
<!-- Generator: Adobe Illustrator 21.0.2, SVG Export Plug-In . SVG Version: 6.00 Build 0)  -->

<svg
   xmlns:dc="http://purl.org/dc/elements/1.1/"
   xmlns:cc="http://creativecommons.org/ns#"
   xmlns:rdf="http://www.w3.org/1999/02/22-rdf-syntax-ns#"
   xmlns:svg="http://www.w3.org/2000/svg"
   xmlns="http://www.w3.org/2000/svg"
   xmlns:sodipodi="http://sodipodi.sourceforge.net/DTD/sodipodi-0.dtd"
   xmlns:inkscape="http://www.inkscape.org/namespaces/inkscape"
   version="1.1"
   id="Layer_1"
   x="0px"
   y="0px"
   viewBox="0 0 1920 220"
   xml:space="preserve"
   sodipodi:docname="Workbox-Pattern-HomePage.svg"
   width="1920"
   height="220"
   inkscape:version="0.92.1 r15371"><metadata
     id="metadata25"><rdf:RDF><cc:Work
         rdf:about=""><dc:format>image/svg+xml</dc:format><dc:type
           rdf:resource="http://purl.org/dc/dcmitype/StillImage" /><dc:title></dc:title></cc:Work></rdf:RDF></metadata><defs
     id="defs23" /><sodipodi:namedview
     pagecolor="#ffffff"
     bordercolor="#666666"
     borderopacity="1"
     objecttolerance="10"
     gridtolerance="10"
     guidetolerance="10"
     inkscape:pageopacity="0"
     inkscape:pageshadow="2"
     inkscape:window-width="2401"
     inkscape:window-height="1014"
     id="namedview21"
     showgrid="false"
     fit-margin-top="0"
     fit-margin-left="0"
     fit-margin-right="0"
     fit-margin-bottom="0"
     inkscape:zoom="0.325"
     inkscape:cx="2318.9651"
     inkscape:cy="187.19105"
     inkscape:window-x="0"
     inkscape:window-y="27"
     inkscape:window-maximized="0"
     inkscape:current-layer="Layer_1" /><style
     type="text/css"
     id="style2">
	.st0{fill:#616161;}
	.st1{fill:#F57C00;}
	.st2{fill:#FFFFFF;}
	.st3{fill:url(#SVGID_1_);}
	.st4{fill:url(#SVGID_2_);}
</style><linearGradient
     id="SVGID_1_"
     gradientUnits="userSpaceOnUse"
     x1="-0.5"
     y1="110.5"
     x2="1919.5"
     y2="110.5"
     gradientTransform="translate(0.5,-0.5)"><stop
       offset="0"
       style="stop-color:#EC6D23"
       id="stop4" /><stop
       offset="1"
       style="stop-color:#EC6E23"
       id="stop6" /></linearGradient><rect
     x="0"
     y="0"
     class="st3"
     width="1920"
     height="220"
     id="rect9"
     style="fill:url(#SVGID_1_)" /><linearGradient
     id="SVGID_2_"
     gradientUnits="userSpaceOnUse"
     x1="2294.5522"
     y1="6902.7637"
     x2="374.55219"
     y2="6902.7637"
     gradientTransform="rotate(180,1147.2761,3506.3819)"><stop
       offset="0"
       style="stop-color:#EC6D23"
       id="stop11" /><stop
       offset="0.7573"
       style="stop-color:#E86324"
       id="stop13" /><stop
       offset="1"
       style="stop-color:#E65F24"
       id="stop15" /></linearGradient><path
     class="st4"
     d="m 1151.5,155.9 -47.7,-14.7 v 33.3 h 47.7 z m 0,26.9 h -47.7 V 216 l 47.7,-14.7 z M 1207.4,87 1159.9,72.3 v 33.2 h 47.5 z M 1159.8,0 V 9.3 L 1190,0 Z m 47.6,45 h -47.5 v 18.6 l 47.5,14.7 z m 0,-41.6 -47.5,14.7 v 18.6 h 47.5 z m -55.9,110.5 h -47.7 v 18.5 l 47.7,14.7 z m 0,-113.9 h -30.2 l 30.2,9.3 z m -56.1,113.9 h -47.5 v 33.3 l 47.5,-14.7 z m 0,-27 -47.5,-14.7 v 33.3 h 47.5 z m 56.1,-14.6 -47.7,14.7 v 18.5 h 47.7 z m -56.1,110.5 h -47.5 v 18.5 l 47.5,14.7 z m 0,-137.8 h -47.5 v 18.5 l 47.5,14.7 z m 0,96.3 -47.5,14.7 v 18.5 h 47.5 z M 1151.5,45 h -47.7 v 33.3 l 47.7,-14.7 z m 0,-26.9 -47.7,-14.7 v 33.3 h 47.7 z M 1319.2,45 h -47.5 v 18.6 l 47.5,14.7 z M 1095.4,3.5 1047.9,18.2 v 18.5 h 47.5 z m 223.8,-0.1 -47.5,14.7 v 18.6 h 47.5 z m 0,83.6 -47.5,-14.7 v 33.2 h 47.5 z M 1271.6,0 V 9.3 L 1301.8,0 Z m 47.6,141.2 -47.5,14.7 v 18.6 h 47.5 z M 1263.3,0 h -30.2 l 30.2,9.3 z M 1375,18 1327.5,3.4 v 33.2 h 47.5 z m -55.8,95.9 h -47.5 v 33.2 l 47.5,-14.7 z m -111.8,27.3 -47.5,14.7 v 18.6 h 47.5 z M 1263.3,45 h -47.5 v 33.2 l 47.5,-14.7 z m 0,110.9 -47.5,-14.7 v 33.3 h 47.5 z m 0,-137.8 -47.5,-14.7 v 33.2 h 47.5 z m -55.9,164.7 h -47.5 v 18.5 l 47.5,14.7 z m 0,-68.9 h -47.5 v 33.2 l 47.5,-14.7 z m 55.9,68.9 h -47.5 V 216 l 47.5,-14.7 z m 0,-68.9 h -47.5 v 18.6 l 47.5,14.7 z m 0,-41.6 -47.5,14.7 v 18.5 h 47.5 z m 55.9,110.5 h -47.5 v 18.5 l 47.5,14.7 z m -447.2,0 h -47.6 v 18.5 L 872,216 Z m 0,-68.9 h -47.6 v 33.2 L 872,132.4 Z M 872,87 824.4,72.3 v 33.2 H 872 Z m 0,-42 H 824.4 V 63.5 L 872,78.2 Z m 0,96.2 -47.6,14.7 v 18.6 H 872 Z M 927.9,72.3 880.4,87 v 18.5 h 47.5 z m 0,-54.2 -47.6,-14.7 v 33.2 h 47.5 V 18.1 Z m 0,26.9 H 880.4 V 78.2 L 927.9,63.5 Z M 816,0 H 785.8 L 816,9.3 Z m 0,72.3 -47.5,14.7 v 18.5 H 816 Z m 0,110.5 H 768.5 V 216 L 816,201.4 Z m 0,-68.9 h -47.5 v 18.6 L 816,147.1 Z M 816,45 H 768.5 V 78.2 L 816,63.6 Z M 816,18 768.5,3.4 V 36.6 H 816 Z M 872,3.4 824.4,18.1 V 36.7 H 872 Z M 824.4,0 V 9.3 L 854.6,0 Z m 103.5,113.9 h -47.5 v 18.6 l 47.5,14.7 z M 983.8,45 h -47.5 v 18.6 l 47.5,14.7 z m 55.7,68.9 h -47.4 v 18.6 l 47.4,14.6 z m 0,-68.9 h -47.4 v 33.2 l 47.4,-14.6 z m 0,27.4 -47.4,14.6 v 18.5 h 47.4 z m -55.7,68.8 -47.5,14.7 v 18.6 h 47.5 z M 1039.5,18 992.1,3.4 v 33.2 h 47.4 z m 0,-18 h -30 l 30,9.3 z m 0,155.8 -47.4,-14.6 v 33.3 h 47.4 z m 0,27 H 992.1 V 216 l 47.4,-14.6 z M 927.9,155.9 880.4,141.2 v 33.3 h 47.5 z M 936.2,0 V 9.3 L 966.4,0 Z m -8.3,0 h -30.2 l 30.2,9.3 z m 0,182.8 H 880.4 V 216 l 47.5,-14.7 z M 983.8,3.4 936.3,18.1 v 18.6 h 47.5 z m 0,83.6 -47.5,-14.7 v 33.2 h 47.5 z M 1047.9,0 V 9.4 L 1078.3,0 Z m -64.1,182.8 h -47.5 v 18.5 L 983.8,216 Z M 816,155.8 768.5,141.2 v 33.3 H 816 Z m 894.5,0.1 -47.7,-14.7 v 33.3 h 47.7 z m 0,-155.9 h -30.2 l 30.2,9.3 z m 0,182.8 h -47.7 V 216 l 47.7,-14.7 z m 55.9,-68.9 h -47.5 v 33.2 l 47.5,-14.7 z m 0,-26.9 -47.5,-14.7 v 33.2 h 47.5 z m -55.9,26.9 h -47.7 v 18.5 l 47.7,14.7 z m 55.9,-110.5 -47.5,14.7 v 18.6 h 47.5 z m 0,41.6 h -47.5 v 18.6 l 47.5,14.7 z M 1718.8,0 V 9.3 L 1749,0 Z m -64.4,113.9 h -47.5 v 33.3 l 47.5,-14.7 z m 0,68.9 h -47.5 v 18.5 l 47.5,14.7 z m 0,-95.9 -47.5,-14.7 v 33.3 h 47.5 z m 56.1,-14.6 -47.7,14.7 v 18.5 h 47.7 z M 1654.4,45 h -47.5 v 18.5 l 47.5,14.7 z m 0,96.3 -47.5,14.7 v 18.5 h 47.5 z M 1710.5,45 h -47.7 v 33.3 l 47.7,-14.7 z m 0,-26.9 -47.7,-14.7 v 33.3 h 47.7 z m 167.7,-14.7 -47.5,14.7 v 18.6 h 47.5 z m -223.8,0.1 -47.5,14.7 v 18.5 h 47.5 z m 112,179.3 h -47.5 v 18.5 l 47.5,14.7 z M 1830.6,0 V 9.3 L 1860.8,0 Z m 47.6,87 -47.5,-14.7 v 33.2 h 47.5 z m 0,26.9 h -47.5 v 33.2 l 47.5,-14.7 z m 0,27.3 -47.5,14.7 v 18.6 h 47.5 z M 1822.3,0 h -30.2 l 30.2,9.3 z m 55.9,182.8 h -47.5 v 18.5 l 47.5,14.7 z m 0,-137.8 h -47.5 v 18.6 l 47.5,14.7 z m -55.9,0 h -47.5 v 33.2 l 47.5,-14.7 z m 0,-26.9 -47.5,-14.7 v 33.2 h 47.5 z m 0,137.8 -47.5,-14.7 v 33.3 h 47.5 z m -55.9,-14.7 -47.5,14.7 v 18.6 h 47.5 z m 55.9,41.6 h -47.5 V 216 l 47.5,-14.7 z m 0,-110.5 -47.5,14.7 v 18.5 h 47.5 z m 0,41.6 h -47.5 v 18.6 l 47.5,14.7 z m -447.3,0 h -47.5 v 18.6 l 47.5,14.6 z m 56,27.3 -47.6,14.7 v 18.6 H 1431 Z M 1486.9,18.1 1439.4,3.4 v 33.2 h 47.5 z M 1431,182.8 h -47.6 v 18.5 L 1431,216 Z m 0,-68.9 h -47.6 v 33.2 l 47.6,-14.7 z m 0,-26.9 -47.6,-14.7 v 33.2 h 47.6 z m 55.9,-42 h -47.5 v 33.2 l 47.5,-14.7 z m 0,68.9 h -47.5 v 18.6 l 47.5,14.7 z m 0,-41.6 -47.5,14.7 v 18.5 h 47.5 z m 0,110.5 h -47.5 V 216 l 47.5,-14.7 z m -111.9,0 h -47.5 V 216 L 1375,201.4 Z M 1375,45 h -47.5 V 78.2 L 1375,63.6 Z m 0,27.3 -47.5,14.7 v 18.5 h 47.5 z m 0,83.5 -47.5,-14.6 v 33.3 H 1375 Z M 1375,0 h -30.2 l 30.2,9.3 z m 56,3.4 -47.6,14.7 V 36.7 H 1431 Z M 1383.4,0 V 9.3 L 1413.6,0 Z m 47.6,45 h -47.6 v 18.5 l 47.6,14.7 z m 111.8,96.2 -47.5,14.7 v 18.6 h 47.5 z M 1606.8,0 V 9.4 L 1637.2,0 Z m -8.3,72.4 -47.4,14.6 v 18.5 h 47.4 z m 0,-54.4 -47.4,-14.6 v 33.2 h 47.4 z m 0,95.9 h -47.4 v 18.6 l 47.4,14.6 z m 0,-68.9 h -47.4 v 33.2 l 47.4,-14.6 z m 0,137.8 h -47.4 V 216 l 47.4,-14.6 z m 0,-182.8 h -30 l 30,9.3 z m 0,155.8 -47.4,-14.6 v 33.3 h 47.4 z M 1486.9,0 h -30.2 l 30.2,9.3 z m 55.9,182.8 h -47.5 v 18.5 l 47.5,14.7 z m 0,-179.4 -47.5,14.7 v 18.6 h 47.5 z m -55.9,152.5 -47.5,-14.7 v 33.3 h 47.5 z M 1495.2,0 V 9.3 L 1525.4,0 Z m 47.6,45 h -47.5 v 18.6 l 47.5,14.7 z m 0,68.9 h -47.5 v 33.2 l 47.5,-14.7 z m 0,-26.9 -47.5,-14.7 v 33.2 h 47.5 z m -559,26.9 h -47.5 v 33.2 l 47.5,-14.7 z M 33.5,155.9 0,145.5 v 29 H 33.5 Z M 33.5,72.3 0,82.6 v 22.9 H 33.5 Z M 33.5,45 H 0 V 73.9 L 33.5,63.6 Z m 0,68.9 H 0 v 22.9 l 33.5,10.3 z M 33.5,18 0,7.7 V 36.6 H 33.5 Z M 89.2,3.5 41.8,18.1 v 18.6 h 47.4 z m 288,206.6 v 9.9 h 32.1 z M 33.5,0 H 3.3 l 30.2,9.3 z m 8.3,0 V 9.3 L 72,0 Z m 111.7,210 v 10 h 32.3 z m 103.6,10 v -9.9 L 225,220 Z m 8.3,-9.9 v 9.9 h 32.1 z m 103.5,9.9 v -9.9 l -32.1,9.9 z m -335.4,0 v -9.9 L 1.4,220 Z m 111.6,0 v -9.8 L 113.2,220 Z M 33.5,201.4 V 182.9 H 0 v 28.9 z m 8.3,8.7 V 220 H 73.9 Z M 89.2,45 H 41.8 v 18.6 l 47.4,14.6 z m 112,-41.6 -47.7,14.7 v 18.5 h 47.7 z M 153.5,0 V 9.4 L 183.9,0 Z m 47.7,45 h -47.7 v 18.5 l 47.7,14.7 z M 145.1,0 h -30 l 30,9.3 z m 615.1,141.2 -47.5,14.7 v 18.6 h 47.5 z M 145.1,155.8 97.6,141.1 v 33.4 h 47.5 z M 201.2,87 153.5,72.2 v 33.3 h 47.7 z m 0,26.9 h -47.7 v 33.3 l 47.7,-14.7 z m -56.1,68.9 H 97.6 V 216 l 47.5,-14.7 z M 145.1,18 97.6,3.3 v 33.3 h 47.5 z M 89.2,182.8 H 41.8 v 18.5 l 47.4,14.6 z m 0,-41.5 -47.4,14.6 v 18.6 h 47.4 z m 0,-27.4 H 41.8 v 33.2 l 47.4,-14.6 z m 55.9,0 H 97.6 v 18.5 l 47.5,14.7 z m 0,-68.9 H 97.6 V 78.3 L 145.1,63.6 Z M 89.2,86.9 41.8,72.3 v 33.2 H 89.2 Z M 145.1,72.4 97.6,87 v 18.5 h 47.5 z M 1606.8,210 v 10 h 32.3 z M 201.2,141.2 153.5,155.9 v 18.6 h 47.7 z M 1710.5,220 v -9.9 l -32.1,9.9 z m 8.3,-9.9 v 9.9 h 32.1 z m 103.5,9.9 v -9.9 l -32.1,9.9 z m -327.1,-9.9 v 9.9 h 32.1 z m -8.3,9.9 v -9.9 l -32.1,9.9 z m 343.7,-9.9 v 9.9 h 32.1 z m -232.1,9.9 v -9.8 l -31.9,9.8 z M 1920,13.7 1886.5,3.4 v 33.2 h 33.5 z m 0,206.3 v -5.6 l -18,5.6 z m 0,-175 h -33.5 V 78.2 L 1920,67.9 Z m 0,-45 h -16.1 l 16.1,5 z m 0,76.6 -33.5,10.4 v 18.5 h 33.5 z m -536.6,133.5 v 9.9 h 32.1 z M 1920,182.8 h -33.5 V 216 l 33.5,-10.3 z m 0,-31.3 -33.5,-10.3 v 33.3 h 33.5 z m 0,-37.6 h -33.5 v 18.6 l 33.5,10.3 z M 816,220 v -9.9 l -32.1,9.9 z m -111.7,0 v -9.9 l -32.1,9.9 z m 8.3,-9.9 v 9.9 h 32.1 z m 215.3,9.9 v -9.9 l -32.1,9.9 z m 447.1,0 v -9.9 l -32.1,9.9 z m -894.3,0 v -9.9 l -32.1,9.9 z m 8.3,-9.9 v 9.9 h 32.1 z m 111.8,0 v 9.9 h 32.1 z m -8.3,9.9 v -9.9 l -32.1,9.9 z m 231.9,-9.9 v 9.9 h 32.1 z m 438.9,9.9 v -9.9 l -32.1,9.9 z m -327.1,-9.9 v 9.9 h 32.1 z m 223.6,0 v 9.9 h 32.1 z m 111.8,0 v 9.9 h 32.1 z m -232.1,9.9 v -9.8 l -31.9,9.8 z m 8.4,-10 v 10 h 32.3 z m 103.6,10 v -9.9 l -32.1,9.9 z M 201.2,182.8 h -47.7 v 18.5 l 47.7,14.7 z m 391.3,0 H 545 V 216 l 47.5,-14.7 z M 592.5,0 h -30.2 l 30.2,9.3 z m 0,155.9 -47.5,-14.7 v 33.3 h 47.5 z m 0,-42 H 545 v 18.6 l 47.5,14.7 z M 600.8,0 V 9.3 L 631,0 Z m 47.6,45 h -47.5 v 18.6 l 47.5,14.7 z m 0,-41.6 -47.5,14.7 v 18.6 h 47.5 z M 592.5,72.3 545,87 v 18.5 h 47.5 z m -55.9,41.6 h -47.5 v 33.2 l 47.5,-14.7 z M 592.5,45 H 545 v 33.2 l 47.5,-14.6 z m 55.9,42 -47.5,-14.7 v 33.2 h 47.5 z M 536.6,45 h -47.5 v 18.6 l 47.5,14.7 z m 0,-41.6 -47.5,14.7 v 18.6 h 47.5 z m 0,83.6 -47.5,-14.7 v 33.2 h 47.5 z M 592.5,18 544.9,3.4 v 33.2 h 47.6 z m -55.9,164.8 h -47.5 v 18.5 L 536.6,216 Z M 489,0 V 9.3 L 519.2,0 Z m 47.6,141.2 -47.5,14.7 v 18.6 h 47.5 z M 760.2,3.4 712.7,18.1 v 18.6 h 47.5 z m 0,41.6 h -47.5 v 18.6 l 47.5,14.7 z M 712.6,0 V 9.3 L 742.8,0 Z m -8.3,0 h -30.2 l 30.2,9.3 z m 55.9,182.8 h -47.5 v 18.5 l 47.5,14.7 z m -55.9,-26.9 -47.5,-14.7 v 33.3 h 47.5 z m 55.9,-42 h -47.5 v 33.2 l 47.5,-14.7 z m -111.8,0 h -47.5 v 33.2 l 47.5,-14.7 z M 760.2,87 712.7,72.3 v 33.2 h 47.5 z M 704.3,18.1 656.7,3.4 v 33.2 h 47.5 V 18.1 Z m -55.9,123.1 -47.5,14.7 v 18.6 h 47.5 z m 0,41.6 h -47.5 v 18.5 l 47.5,14.7 z m 55.9,0 H 656.8 V 216 l 47.5,-14.7 z m 0,-137.8 h -47.5 v 33.2 l 47.5,-14.7 z m 0,68.9 h -47.5 v 18.6 l 47.5,14.7 z m 0,-41.6 -47.5,14.7 v 18.5 h 47.5 z M 480.7,0 h -30.2 l 30.2,9.3 z M 313,182.8 h -47.5 v 18.5 L 313,216 Z m 0,-68.9 h -47.5 v 33.2 L 313,132.4 Z M 313,87 265.5,72.3 v 33.2 H 313 Z m 0,54.2 -47.5,14.7 v 18.6 H 313 Z M 368.9,18 321.3,3.4 v 33.2 h 47.5 V 18 Z m 0,54.3 -47.5,14.7 v 18.5 h 47.5 z M 313,45 H 265.5 V 63.6 L 313,78.3 Z m 55.9,0 h -47.5 v 33.2 l 47.5,-14.7 z m -111.8,68.9 h -47.6 v 18.6 l 47.5,14.7 v -33.3 z m 111.8,0 h -47.5 v 18.6 l 47.5,14.7 z M 257.1,72.3 209.5,87 v 18.5 H 257 V 72.3 Z m 0,-27.3 H 209.5 V 78.2 L 257,63.5 V 45 Z m 0,137.8 H 209.5 V 216 L 257,201.3 V 182.8 Z M 265.4,0 V 9.3 L 295.6,0 Z M 313,3.4 265.5,18.1 V 36.7 H 313 Z m -55.9,152.5 -47.6,-14.7 v 33.3 H 257 V 155.9 Z M 257.1,0 h -30.2 l 30.2,9.3 z m 167.6,182.8 h -47.5 v 18.5 l 47.5,14.6 z M 480.7,45 h -47.6 v 33.2 l 47.6,-14.7 z m 0,-27 -47.6,-14.6 v 33.2 h 47.6 z m 0,54.3 -47.6,14.7 v 18.5 h 47.6 z m -56,68.9 -47.5,14.6 v 18.7 h 47.5 z m 56,14.7 -47.6,-14.7 v 33.3 h 47.6 z M 257.1,18 209.5,3.4 V 36.6 H 257 V 18 Z m 223.6,95.9 h -47.6 v 18.6 l 47.6,14.7 z m 0,68.9 H 433.1 V 216 l 47.6,-14.7 z M 424.7,45 h -47.5 v 18.6 l 47.5,14.6 z M 368.9,0 h -30.2 l 30.2,9.3 z m 8.3,0 V 9.3 L 407.4,0 Z m -8.3,155.9 -47.5,-14.7 v 33.3 h 47.5 z m 0,26.9 H 321.4 V 216 l 47.5,-14.7 z M 424.7,86.9 377.2,72.3 v 33.2 h 47.5 z m 0,-83.5 -47.5,14.6 v 18.6 h 47.5 z m 0,110.5 h -47.5 v 33.2 l 47.5,-14.6 z"
     id="path18"
     inkscape:connector-curvature="0"
     style="fill:url(#SVGID_2_)" /></svg>