<?xml version="1.0" encoding="UTF-8" standalone="no"?>
<svg
   xmlns:dc="http://purl.org/dc/elements/1.1/"
   xmlns:cc="http://creativecommons.org/ns#"
   xmlns:rdf="http://www.w3.org/1999/02/22-rdf-syntax-ns#"
   xmlns:svg="http://www.w3.org/2000/svg"
   xmlns="http://www.w3.org/2000/svg"
   xmlns:sodipodi="http://sodipodi.sourceforge.net/DTD/sodipodi-0.dtd"
   xmlns:inkscape="http://www.inkscape.org/namespaces/inkscape"
   width="65"
   height="65"
   viewBox="0 0 65 65"
   id="svg2"
   version="1.1"
   inkscape:version="0.48.4 r9939"
   sodipodi:docname="bg-sync.min.svg">
  <metadata
     id="metadata12">
    <rdf:RDF>
      <cc:Work
         rdf:about="">
        <dc:format>image/svg+xml</dc:format>
        <dc:type
           rdf:resource="http://purl.org/dc/dcmitype/StillImage" />
      </cc:Work>
    </rdf:RDF>
  </metadata>
  <defs
     id="defs10" />
  <sodipodi:namedview
     pagecolor="#ffffff"
     bordercolor="#666666"
     borderopacity="1"
     objecttolerance="10"
     gridtolerance="10"
     guidetolerance="10"
     inkscape:pageopacity="0"
     inkscape:pageshadow="2"
     inkscape:window-width="1416"
     inkscape:window-height="987"
     id="namedview8"
     showgrid="false"
     inkscape:zoom="3.6307692"
     inkscape:cx="-15.974576"
     inkscape:cy="32.5"
     inkscape:window-x="0"
     inkscape:window-y="27"
     inkscape:window-maximized="0"
     inkscape:current-layer="svg2" />
  <g
     fill="none"
     fill-rule="nonzero"
     id="g4"
     style="fill:#f57c00;fill-opacity:1">
    <path
       fill="#FFF"
       d="M47.282 29.54c.603 4.15-.663 8.52-3.9 11.71-4.783 4.718-12.16 5.298-17.587 1.754l3.802-3.707-13.973-1.948 1.95 13.644 4.267-4.087c7.663 5.648 18.53 5.115 25.493-1.755 4.036-3.983 5.877-9.27 5.648-14.486l-5.698-1.125zm-23.66-7.788c4.78-4.72 12.156-5.303 17.583-1.755l-3.808 3.705 13.972 1.95L49.42 12l-4.26 4.097c-7.665-5.654-18.53-5.114-25.493 1.755-4.036 3.98-5.875 9.267-5.648 14.483l5.698 1.123c-.603-4.15.666-8.516 3.903-11.706z"
       id="path6"
       style="fill:#f57c00;fill-opacity:1" />
  </g>
</svg>
